<?xml version="1.0" encoding="UTF-8"?>
<svg xmlns="http://www.w3.org/2000/svg" width="117" height="10" viewBox="0 0 117 10">
	<title>
		Shape
	</title>
	<g id="Page-1" fill="none" fill-rule="evenodd" stroke="none" stroke-width="1">
		<path id="Shape" fill="#000" fill-rule="nonzero" d="M97.1602339,1.81000929 C97.414533,1.81965322 97.6159987,1.93579707 97.7646209,2.15844084 C97.9132432,2.38110494 97.9894598,2.65247648 97.9925084,2.97255548 C97.9947644,3.16191803 97.9265049,3.3479677 97.78774,3.53070448 C97.6489649,3.71346159 97.4261484,3.83480849 97.1192802,3.89466389 L97.0887699,4.60049768 L97.0887699,4.60049768 L97.0809687,4.96736602 L97.0809687,7.50382213 C97.0683066,7.82308816 97.1233451,8.05647338 97.2461046,8.20398796 C97.3688437,8.3515127 97.6352662,8.43954789 98.0453519,8.46820531 C98.0849845,8.51278691 98.1048008,8.5722663 98.1048008,8.64655203 C98.1048008,8.72085808 98.0849845,8.78028666 98.0453519,8.82489874 C97.6443512,8.87250868 97.3135308,8.94244498 97.0529007,9.03461619 C96.7922604,9.12681788 96.5902459,9.23305358 96.4468572,9.35332329 C96.3981904,9.36937957 96.3561189,9.37852556 96.320856,9.37954178 C96.285583,9.38086287 96.243918,9.37202175 96.1958507,9.35332329 L96.123191,9.07903519 L96.123191,9.07903519 C96.0808146,8.90941781 96.0566285,8.74103006 96.0505312,8.57389226 C96.047889,8.52948342 96.0293938,8.50824441 95.9950455,8.51129307 C95.9606973,8.51393524 95.926349,8.52907693 95.8920008,8.55671813 C95.5699808,8.82282565 95.2694437,9.02214716 94.9903692,9.15466232 C94.7112846,9.28716733 94.4437746,9.35340459 94.1878192,9.35332329 C93.5446227,9.33588494 93.0971096,9.15038404 92.84528,8.79727787 C92.629426,8.49461544 92.5099969,8.14766404 92.4870629,7.75643007 L92.4836376,7.5571229 L92.4836376,5.02066679 C92.4891455,4.60426024 92.4318916,4.32739094 92.3118963,4.19004873 C92.1919009,4.052737 91.9761268,3.97733343 91.6645739,3.9638177 C91.6249413,3.91593338 91.605125,3.84329394 91.605125,3.74583838 C91.605125,3.64841331 91.6249413,3.57572305 91.6645739,3.52785906 L92.3630935,3.54604941 C92.5851986,3.55113052 92.8015215,3.55391496 93.0120621,3.55417918 L93.1586049,3.55201971 L93.1586049,3.55201971 L93.292793,3.54604941 C93.3781048,3.54076507 93.4386715,3.53497261 93.4744425,3.52785906 C93.5077745,3.52867204 93.5336881,3.53690343 93.5520817,3.55275647 C93.5709834,3.56860951 93.5798449,3.58720635 93.5801294,3.60844536 L93.5537077,4.13951208 C93.5421228,4.38114901 93.5341962,4.59686851 93.5300996,4.78666628 L93.5272859,4.96782332 L93.5272859,7.37217076 C93.5465433,7.9432664 93.6731441,8.31701201 93.9070882,8.49342791 C94.1410324,8.66987429 94.3667146,8.74964761 94.584135,8.73287997 C94.7498196,8.73287997 94.9369668,8.6800365 95.1455969,8.57434955 C95.3542067,8.46866261 95.5809966,8.3101322 95.8259464,8.09875832 C95.9162173,8.02247064 95.9747516,7.94780891 96.0014782,7.87484427 C96.019296,7.82618086 96.030655,7.76680873 96.0353447,7.69671887 L96.0373508,7.58354464 L96.0373508,5.03387766 C96.0436717,4.61031692 95.9880743,4.3279397 95.8705585,4.18674601 C95.7530326,4.04552183 95.5356122,3.97093124 95.2182872,3.9638177 C95.1786546,3.91593338 95.1588281,3.84329394 95.1588383,3.74583838 C95.1588383,3.64841331 95.1786546,3.57572305 95.2182872,3.52785906 L95.9167966,3.54604941 C96.1389017,3.55113052 96.3552246,3.55391496 96.5657754,3.55417918 L96.6962898,3.55176565 L96.6962898,3.55176565 L96.8911921,3.5424663 L96.8911921,3.5424663 L97.0017238,3.53141584 C97.1341069,3.51002439 97.2557485,3.4654428 97.366669,3.393596 C97.4776199,3.32176953 97.5362559,3.24749397 97.5433694,3.17066769 C97.5441824,3.09636164 97.5161347,3.03363034 97.4591247,2.98241282 C97.4163901,2.9440759 97.3546204,2.91768592 97.2738113,2.90345725 L97.1866556,2.89329028 C96.9637172,2.88036395 96.8018739,2.81706357 96.7011664,2.70338914 C96.6004081,2.58972486 96.5505117,2.46367286 96.5525442,2.32523313 C96.5539161,2.16505644 96.6073083,2.03957352 96.7127208,1.9487234 C96.8181232,1.85787328 96.9672943,1.81204173 97.1602339,1.81000929 Z M49.6423606,3.42168434 C50.1473907,3.39747796 50.6004066,3.53508439 51.0014103,3.83452395 C51.3689896,4.10901953 51.5776976,4.6415916 51.6275259,5.43226364 L51.6371762,5.65430065 L51.6371762,7.62268946 C51.6269835,7.93533988 51.6506513,8.19845972 51.7081796,8.41202864 C51.7656966,8.62559756 51.9181704,8.73645706 52.1656008,8.74560305 C52.2992429,8.73676193 52.3926001,8.7016007 52.4456671,8.63991611 C52.498723,8.57823152 52.5418818,8.54337515 52.5751326,8.53422917 C52.6054038,8.53778594 52.640626,8.56369956 52.6808175,8.61186842 C52.7209989,8.66006776 52.7430102,8.70904959 52.7468718,8.7588444 C52.7405357,8.81251101 52.634299,8.91984423 52.4281627,9.08085422 C52.2220152,9.24185405 51.9539484,9.33269401 51.6239623,9.35332329 C51.2778924,9.33873036 51.030082,9.24570553 50.8805299,9.07424879 C50.7608817,8.93707527 50.6785426,8.80571616 50.6335142,8.68017145 L50.6067387,8.58710312 L50.5803078,8.58702183 L50.3160935,8.79839571 C50.0397669,9.0180213 49.8030749,9.16661308 49.6060185,9.24425233 C49.4089561,9.32184077 49.1656597,9.35832309 48.8761282,9.35324199 C48.4021924,9.35902429 48.0091752,9.2516809 47.6970735,9.03123217 C47.3849698,8.81077328 47.2231347,8.44252542 47.2115803,7.9264886 C47.2231387,7.47346762 47.4279041,7.08155199 47.8258775,6.75073154 C48.1669949,6.46717986 48.5991055,6.24549238 49.1222099,6.08568188 L49.391345,6.01093311 L50.5274654,5.73350489 C50.5480946,5.72700108 50.5662647,5.71043668 50.5819551,5.68401495 C50.597676,5.65765418 50.6058912,5.62127349 50.6067204,5.57503545 C50.5902028,4.85037871 50.4680043,4.37754143 50.2401229,4.15653377 C50.0447908,3.9671509 49.8446079,3.86685366 49.6395744,3.85575725 L49.5366533,3.85764297 C49.2713364,3.85517356 49.0258379,3.89643211 48.8001576,3.98148978 C48.5744723,4.06653728 48.4544739,4.21021054 48.4401655,4.41248925 L48.4440046,4.53690476 C48.4452015,4.55433107 48.4466694,4.57010507 48.4483969,4.58423053 L48.4599382,4.65356689 C48.4620482,4.66255856 48.4642534,4.67027054 48.4665568,4.67670661 C48.4797677,4.70391083 48.4896758,4.73866558 48.4962812,4.78073711 C48.5028867,4.82282897 48.5062392,4.86744105 48.5062402,4.91449206 C48.5059638,5.00780144 48.4569708,5.10196444 48.3592713,5.19687944 C48.2615658,5.29181477 48.1167991,5.34333715 47.9249702,5.3504507 C47.7727708,5.35099946 47.6577235,5.31356189 47.5798403,5.23815832 C47.5019531,5.16275475 47.4628703,5.04606214 47.4625949,4.88807033 C47.4857129,4.51487348 47.7135973,4.18130923 48.1462481,3.88736742 C48.5788969,3.59343578 49.0776011,3.43824873 49.6423606,3.42168434 Z M116.154515,1.81000929 C116.409373,1.81965322 116.613033,1.93579707 116.765517,2.15844084 C116.917991,2.38110494 116.995935,2.65247648 117,2.97255548 C116.997856,3.28860009 116.920897,3.54592747 116.769145,3.74455794 C116.617383,3.94318842 116.403702,4.06944367 116.128103,4.12320174 C116.431475,4.4267265 116.65104,4.77912132 116.786817,5.18039634 C116.922564,5.58167137 116.988822,5.98624911 116.986789,6.39412957 C116.99312,7.09539292 116.772387,7.7537311 116.32461,8.36912381 C115.876812,8.98452667 115.163984,9.31257284 114.186126,9.35332329 C113.255593,9.3191986 112.560386,9.01425112 112.100485,8.43848086 C111.640585,7.86272076 111.411051,7.22089616 111.41187,6.51301722 C111.417108,5.65022561 111.66095,4.92528433 112.143421,4.33823401 C112.625882,3.7511837 113.315591,3.44571795 114.212548,3.42173515 C114.490352,3.4224465 114.744549,3.45059581 114.97513,3.50608146 C115.20571,3.56154678 115.41433,3.63957219 115.600989,3.74007641 L115.72286,3.74958443 L115.72286,3.74958443 L115.850675,3.75196619 C115.943415,3.75807368 116.078278,3.72615419 116.255253,3.65623821 C116.432217,3.58634256 116.530719,3.44212053 116.550841,3.22359246 C116.546979,3.13744744 116.508413,3.06868995 116.435246,3.01716757 C116.362027,2.96564518 116.277274,2.93322775 116.180936,2.91971201 C115.958008,2.89412358 115.796155,2.82311008 115.695447,2.70669185 C115.594689,2.59027362 115.544792,2.4631241 115.546825,2.32523313 C115.548197,2.16505644 115.601589,2.03957352 115.707012,1.9487234 C115.812414,1.85787328 115.961585,1.81204173 116.154515,1.81000929 Z M43.7769477,3.42171482 C44.788387,3.45970115 45.5067178,3.78336741 45.9319421,4.39270344 C46.3571562,5.00204963 46.5635709,5.66918829 46.5511934,6.39412957 C46.5575173,7.09539292 46.3367891,7.7537311 45.8890078,8.36912381 C45.4412152,8.98452667 44.7283883,9.31257284 43.750526,9.35332329 C42.8199952,9.3191986 42.1247834,9.01425112 41.6648867,8.43848086 C41.2049889,7.86272076 40.9754532,7.22089616 40.9762749,6.51301722 C40.9815078,5.65020529 41.225355,4.925264 41.707821,4.33821369 C42.1902849,3.75116338 42.8799928,3.44569763 43.7769477,3.42171482 Z M10.1256696,3.42168434 C10.6306998,3.39747796 11.0837157,3.53508439 11.4847194,3.83452395 C11.8522986,4.10901953 12.0610058,4.6415916 12.1108339,5.43226364 L12.1204842,5.65430065 L12.1204842,7.62268946 C12.1102916,7.93533988 12.1339593,8.19845972 12.1914876,8.41202864 C12.2490046,8.62559756 12.4014784,8.73645706 12.6489088,8.74560305 C12.7825509,8.73676193 12.8759081,8.7016007 12.9289751,8.63991611 C12.982031,8.57823152 13.0251899,8.54337515 13.0584406,8.53422917 C13.0887118,8.53778594 13.123934,8.56369956 13.1641255,8.61186842 C13.2043069,8.66006776 13.2263182,8.70904959 13.2301799,8.7588444 C13.2238437,8.81251101 13.117608,8.91984423 12.9114717,9.08085422 C12.7053243,9.24185405 12.4372575,9.33269401 12.1072713,9.35332329 C11.7612015,9.33873036 11.513391,9.24570553 11.3638389,9.07424879 C11.2441907,8.93707527 11.161851,8.80571616 11.1168224,8.68017145 L11.0900467,8.58710312 L11.0636067,8.58702183 L10.7993924,8.79839571 C10.5230658,9.0180213 10.2863738,9.16661308 10.0893174,9.24425233 C9.89225495,9.32184077 9.64895853,9.35832309 9.35942611,9.35324199 C8.88549131,9.35902429 8.49247308,9.2516809 8.18037242,9.03123217 C7.86826872,8.81077328 7.70644271,8.44252542 7.69487812,7.9264886 C7.70643763,7.47346762 7.91120303,7.08155199 8.30917635,6.75073154 C8.65029373,6.46717986 9.08240433,6.24549238 9.60550879,6.08568188 L9.87464385,6.01093311 L11.0107632,5.73350489 C11.0313925,5.72700108 11.0495625,5.71043668 11.065253,5.68401495 C11.0809739,5.65765418 11.089189,5.62127349 11.0900183,5.57503545 C11.0735016,4.85037871 10.9513021,4.37754143 10.7234218,4.15653377 C10.5280897,3.9671509 10.3279068,3.86685366 10.1228732,3.85575725 L10.0199522,3.85764297 C9.75463531,3.85517356 9.50913674,3.89643211 9.28345549,3.98148978 C9.05777119,4.06653728 8.93777281,4.21021054 8.92346442,4.41248925 L8.92730348,4.53690476 C8.92850036,4.55433107 8.92996824,4.57010507 8.93169581,4.58423053 L8.94324685,4.65356689 C8.9453572,4.66255856 8.9475624,4.67027054 8.94986584,4.67670661 C8.9630767,4.70391083 8.97298485,4.73866558 8.97959029,4.78073711 C8.98619572,4.82282897 8.98954722,4.86744105 8.98954925,4.91449206 C8.98927182,5.00780144 8.94027983,5.10196444 8.84258038,5.19687944 C8.74487483,5.29181477 8.6001071,5.34333715 8.40827818,5.3504507 C8.25607984,5.35099946 8.14103249,5.31356189 8.06314935,5.23815832 C7.98526214,5.16275475 7.94617931,5.04606214 7.94590391,4.88807033 C7.96902191,4.51487348 8.19690633,4.18130923 8.62955717,3.88736742 C9.06220597,3.59343578 9.56090912,3.43824873 10.1256696,3.42168434 Z M68.3971903,3.42168434 C68.9022204,3.39747796 69.3552363,3.53508439 69.75624,3.83452395 C70.1238193,4.10901953 70.3325273,4.6415916 70.3823556,5.43226364 L70.3920059,5.65430065 L70.3920059,7.62268946 C70.3818132,7.93533988 70.405481,8.19845972 70.4630092,8.41202864 C70.5205263,8.62559756 70.673,8.73645706 70.9204304,8.74560305 C71.0540726,8.73676193 71.1474297,8.7016007 71.2004968,8.63991611 C71.2535526,8.57823152 71.2967115,8.54337515 71.3299623,8.53422917 C71.3602334,8.53778594 71.3954556,8.56369956 71.4356472,8.61186842 C71.4758285,8.66006776 71.4978399,8.70904959 71.5017015,8.7588444 C71.4953654,8.81251101 71.3891287,8.91984423 71.1829924,9.08085422 C70.9768449,9.24185405 70.7087791,9.33269401 70.378792,9.35332329 C70.0327221,9.33873036 69.7849117,9.24570553 69.6353595,9.07424879 C69.5157114,8.93707527 69.4333723,8.80571616 69.3883439,8.68017145 L69.3615684,8.58710312 L69.335229,8.58702183 L69.0710147,8.79839571 C68.794688,9.0180213 68.557996,9.16661308 68.3609397,9.24425233 C68.1638772,9.32184077 67.9205808,9.35832309 67.6310494,9.35324199 C67.1571136,9.35902429 66.7640963,9.2516809 66.4519947,9.03123217 C66.139891,8.81077328 65.9780558,8.44252542 65.9665014,7.9264886 C65.9780599,7.47346762 66.1828253,7.08155199 66.5807986,6.75073154 C66.921916,6.46717986 67.3540266,6.24549238 67.8771311,6.08568188 L68.1462661,6.01093311 L69.2823865,5.73350489 C69.3030158,5.72700108 69.3211858,5.71043668 69.3368763,5.68401495 C69.3526073,5.65765418 69.3608225,5.62127349 69.3616517,5.57503545 C69.3451341,4.85037871 69.2229356,4.37754143 68.9950542,4.15653377 C68.7997221,3.9671509 68.5995392,3.86685366 68.3945057,3.85575725 L68.2915846,3.85764297 C68.0262677,3.85517356 67.7807692,3.89643211 67.5550889,3.98148978 C67.3294036,4.06653728 67.2094052,4.21021054 67.1950968,4.41248925 L67.1989359,4.53690476 L67.1989359,4.53690476 L67.2033282,4.58423053 C67.2085516,4.62660693 67.2145778,4.65739842 67.2214881,4.67670661 C67.234699,4.70391083 67.2446071,4.73866558 67.2512125,4.78073711 C67.2577164,4.82282897 67.2610689,4.86744105 67.2610699,4.91449206 C67.2607935,5.00780144 67.2118005,5.10196444 67.114101,5.19687944 C67.0163955,5.29181477 66.8716287,5.34333715 66.6797998,5.3504507 C66.5276005,5.35099946 66.4125531,5.31356189 66.33467,5.23815832 C66.2567838,5.16275475 66.2176999,5.04606214 66.2174256,4.88807033 C66.2405425,4.51487348 66.468427,4.18130923 66.9010778,3.88736742 C67.3337266,3.59343578 67.8324308,3.43824873 68.3971903,3.42168434 Z M57.4656515,1.51925995 C57.5823411,1.51721581 57.6396254,1.56127914 57.6373897,1.65151953 L57.610968,2.0230701 L57.610968,2.0230701 L57.5977632,2.29829651 C57.5922643,2.45173396 57.5884176,2.62890779 57.5862092,2.82981799 L57.5845463,3.55385399 L59.1698301,3.55385399 C59.2210163,3.55385399 59.253614,3.56871621 59.2676568,3.59844067 L59.275516,3.63311919 L59.275516,3.89733655 C59.2705579,3.95655172 59.234228,3.99994434 59.1665273,4.02778879 C59.1213882,4.046284 59.0755169,4.05857801 59.0289135,4.0646377 L58.9584592,4.06904734 L57.5845463,4.06904734 L57.5845463,7.41134606 C57.5804102,7.8203342 57.6084884,8.12528167 57.6687605,8.32618849 C57.7290315,8.52714611 57.8462769,8.62728449 58.0204958,8.62673573 C58.1944331,8.62785357 58.3749799,8.59919615 58.5621342,8.54086509 C58.7492814,8.4825137 58.9298282,8.38784259 59.1037727,8.25683143 C59.2358753,8.27026587 59.3151435,8.34513084 59.3415652,8.48141618 C59.0798244,8.77205527 58.7941435,8.99002443 58.4845214,9.13534397 C58.1748922,9.28066352 57.8660922,9.35332329 57.5581205,9.35332329 C57.2498693,9.35744914 57.0043707,9.25672136 56.8216248,9.05112977 C56.6617149,8.87123713 56.5700606,8.59209721 56.5467182,8.21370321 L56.5408969,8.04545755 L56.5408969,4.06904734 L55.7614658,4.06904734 C55.7355929,4.06986032 55.7179716,4.06498246 55.7086224,4.05421052 C55.7023895,4.04702923 55.6983509,4.03510557 55.6965141,4.01840945 L55.6954115,3.81804086 C55.6937551,3.76079715 55.7102686,3.70351279 55.7449522,3.64629958 C55.7709604,3.60338966 55.8127625,3.57511332 55.8703526,3.56194215 L55.9332051,3.5538235 L56.5409467,3.5525329 L56.5381012,2.4958464 L56.5381012,2.4958464 C56.5355912,2.31494898 56.5277256,2.16120496 56.5144843,2.03462453 C56.5137628,1.99031731 56.5336908,1.95688365 56.5742584,1.93442518 L56.6994303,1.86684651 L57.4656515,1.51925995 Z M16.0984035,3.42171482 C16.7374671,3.4286048 17.2328675,3.54695385 17.5846068,3.77675181 C17.9363371,4.0065701 18.1146614,4.30656858 18.1196409,4.67673709 C18.110002,4.88012348 18.0367935,5.0281665 17.9000123,5.12094744 C17.7632218,5.21369789 17.6206563,5.25902133 17.4723165,5.25800511 C17.3325811,5.26048469 17.2193507,5.2258214 17.1326366,5.15397461 C17.0459063,5.08213797 16.9918027,4.95829117 16.9703096,4.78242404 C16.9568203,4.54160008 16.8913168,4.3296876 16.773801,4.14665611 C16.6562771,3.96363478 16.4091272,3.86681944 16.0323502,3.85767346 C15.5881378,3.86373013 15.2281468,4.0695961 14.952376,4.47527136 C14.6766012,4.88095678 14.534562,5.45011145 14.5263306,6.18275569 C14.5398148,6.96411754 14.714306,7.57786397 15.0498041,8.02399497 C15.3852982,8.47013613 15.8008846,8.69787117 16.2965645,8.70600093 C16.5830676,8.70600093 16.8621431,8.63334116 17.1337921,8.48802162 C17.4054329,8.34270207 17.654784,8.12472275 17.8818483,7.83409383 C17.9421163,7.84019115 17.9966132,7.85777177 18.0453308,7.8869373 C18.0940413,7.91611299 18.1320174,7.96010518 18.1592725,8.01904597 C17.8301014,8.54856804 17.4877244,8.90635898 17.1321407,9.09240865 C16.7765489,9.27842783 16.4011458,9.36541631 16.0059295,9.35332329 C15.1686989,9.33983804 14.5246782,9.07286673 14.0738645,8.55241951 C13.6230487,8.03198246 13.3951907,7.33897083 13.3902112,6.47338461 C13.4213106,5.52552518 13.7091927,4.78242404 14.2538595,4.24408118 C14.7985243,3.70575864 15.4133713,3.43187703 16.0984035,3.42171482 Z M62.5317774,3.42171482 C63.5432167,3.45970115 64.2615475,3.78336741 64.6867717,4.39270344 C65.1119859,5.00204963 65.3184006,5.66918829 65.306023,6.39412957 C65.312348,7.09539292 65.0916188,7.7537311 64.6438374,8.36912381 C64.1960449,8.98452667 63.483218,9.31257284 62.5053557,9.35332329 C61.5748248,9.3191986 60.8796131,9.01425112 60.4197164,8.43848086 C59.9598186,7.86272076 59.7302828,7.22089616 59.7311046,6.51301722 C59.7363375,5.65020529 59.9801847,4.925264 60.4626517,4.33821369 C60.9451146,3.75116338 61.6348235,3.44569763 62.5317774,3.42171482 Z M82.9346801,1.51925995 C83.0513697,1.51721581 83.108654,1.56127914 83.1064183,1.65151953 L83.0799966,2.0230701 L83.0799966,2.0230701 L83.0667918,2.29829651 C83.0612929,2.45173396 83.0574462,2.62890779 83.0552378,2.82981799 L83.0535749,3.03864031 L83.0535749,3.55385399 L84.6388587,3.55385399 C84.6900449,3.55385399 84.7226426,3.56871621 84.7366854,3.59844067 L84.7445446,3.63311919 L84.7445446,3.89733655 C84.7395865,3.95655172 84.7032566,3.99994434 84.635556,4.02778879 C84.5904168,4.046284 84.5445455,4.05857801 84.4979421,4.0646377 L84.4274878,4.06904734 L83.0535749,4.06904734 L83.0535749,7.41134606 C83.0494389,7.8203342 83.077517,8.12528167 83.1377891,8.32618849 C83.1980601,8.52714611 83.3153055,8.62728449 83.4895244,8.62673573 C83.6634617,8.62785357 83.8440085,8.59919615 84.0311628,8.54086509 C84.21831,8.4825137 84.3988568,8.38784259 84.5728013,8.25683143 C84.7049039,8.27026587 84.7841721,8.34513084 84.8105939,8.48141618 C84.548853,8.77205527 84.2631721,8.99002443 83.95355,9.13534397 C83.6439208,9.28066352 83.3351208,9.35332329 83.0271491,9.35332329 C82.7188979,9.35744914 82.4733993,9.25672136 82.2906534,9.05112977 C82.1307436,8.87123713 82.0390892,8.59209721 82.0157468,8.21370321 L82.0099255,8.04545755 L82.0099255,4.06904734 L81.2304944,4.06904734 C81.2046215,4.06986032 81.1870002,4.06498246 81.177651,4.05421052 C81.1714181,4.04702923 81.1673795,4.03510557 81.1655427,4.01840945 L81.1644401,3.81804086 C81.1627837,3.76079715 81.1792972,3.70351279 81.2139808,3.64629958 C81.239989,3.60338966 81.2817911,3.57511332 81.3393812,3.56194215 L81.4022337,3.5538235 L82.0099753,3.5525329 L82.0071298,2.4958464 L82.0071298,2.4958464 C82.0046198,2.31494898 81.9967542,2.16120496 81.9835129,2.03462453 C81.9827914,1.99031731 82.0027194,1.95688365 82.043287,1.93442518 L82.1684589,1.86684651 L82.9346801,1.51925995 Z M35.8593394,-1.77635684e-15 C35.9760299,-0.00204413665 36.0333143,0.0420191882 36.0310786,0.132259577 L36.0056528,0.50381015 C35.9981886,0.625599107 35.9921726,0.771124436 35.9876034,0.940386138 L35.9782351,1.51938036 L35.9676664,4.49178495 C35.9702578,4.5754199 35.9862226,4.60499192 36.0155609,4.57948478 C36.0448891,4.55397765 36.0720831,4.52471049 36.097133,4.49178495 C36.4994232,4.0541902 36.8801655,3.76355111 37.2393618,3.61987784 C37.5985521,3.47618425 37.9399931,3.41012991 38.2636868,3.42171482 C38.4977864,3.42227375 38.7105891,3.46078851 38.9020939,3.53730992 C39.0935884,3.61383133 39.2462817,3.72501602 39.3601746,3.87088433 C39.5096972,4.0755105 39.6076182,4.33009409 39.6539477,4.63462491 C39.6886796,4.86303065 39.7091609,5.10884806 39.7153873,5.37208143 L39.7161262,7.77568333 C39.7205256,8.19981405 39.7758147,8.47193936 39.8819957,8.59205212 C40.0014362,8.72713832 40.2414299,8.80040783 40.6019789,8.81168787 C40.6349959,8.85957219 40.6515196,8.93220147 40.6515196,9.02965703 C40.6515196,9.12709226 40.6349959,9.19977236 40.6019789,9.24766683 L39.8919029,9.229446 C39.6915347,9.22436489 39.4614491,9.22159061 39.2016442,9.22131623 L38.7381663,9.22508001 L38.7381663,9.22508001 L37.854153,9.24766683 L37.854153,9.24766683 C37.8211258,9.19975203 37.8046081,9.12711258 37.8046122,9.02965703 C37.8046122,8.93223196 37.8211258,8.85955186 37.854153,8.81168787 C38.1888198,8.80039766 38.4111993,8.72718913 38.5212936,8.59205212 C38.6191471,8.47193936 38.6700623,8.19981405 38.6739593,7.77568333 L38.6732166,5.60148767 C38.6748629,5.40206454 38.6649547,5.21567952 38.6434921,5.04234278 C38.6220204,4.86900603 38.5790861,4.71631889 38.5146882,4.58426102 C38.4353092,4.43209215 38.3331465,4.3150337 38.2082001,4.2330247 C38.0832446,4.15104618 37.952018,4.10958438 37.8145214,4.10866978 C37.5510194,4.11035671 37.2800899,4.17866706 37.0017329,4.31360083 C36.7233697,4.44855492 36.4570641,4.64005153 36.2028158,4.88810081 C36.1472204,4.94414538 36.0965822,5.01634785 36.0508929,5.10475905 C36.0166259,5.17106744 35.9944317,5.2513006 35.9843187,5.34546709 L35.9782331,5.44427835 L35.9773304,7.77776282 C35.9805256,8.20711265 36.0286055,8.48184751 36.121572,8.60196027 C36.2261544,8.73709728 36.441709,8.80660677 36.7682359,8.81168787 C36.8078685,8.85957219 36.8276817,8.93220147 36.8276848,9.02965703 C36.8276848,9.12709226 36.8078685,9.19977236 36.7682359,9.24766683 L35.8061038,9.22357859 C35.6998954,9.22221559 35.585534,9.22145342 35.4630194,9.22131623 L34.9534157,9.22508001 L34.9534157,9.22508001 L34.0124844,9.24766683 L34.0124844,9.24766683 L34.0069575,9.24062732 L33.6361617,9.23465442 L33.6361617,9.23465442 L33.1136489,9.22244725 L33.1136489,9.22244725 L32.9198959,9.22134672 C32.7250325,9.22134672 32.556597,9.22439538 32.4145863,9.22947648 L32.0083572,9.24766683 L32.0083572,9.24766683 C31.9833988,9.24617638 31.9672387,9.23592384 31.9599008,9.216849 L31.9555137,9.18161249 L31.9555137,8.97023861 C31.9593652,8.88932713 31.9417439,8.79685105 31.9026703,8.69282055 C31.8714016,8.60958802 31.8116006,8.49994351 31.723267,8.36387141 L31.6516668,8.25686192 L30.6872857,6.89616287 C30.5628545,6.7136903 30.4444537,6.58853257 30.332083,6.52064903 C30.2478013,6.46973638 30.1521419,6.43831611 30.0451053,6.42621674 L29.9342764,6.42055131 L29.9344589,7.77776282 C29.9400836,8.20711265 29.9868113,8.48184751 30.0746398,8.60196027 C30.1734419,8.73709728 30.3556401,8.80660677 30.6212324,8.81168787 C30.660865,8.85957219 30.6806782,8.93220147 30.6806813,9.02965703 C30.6806813,9.12709226 30.660865,9.19977236 30.6212324,9.24766683 L29.9805134,9.229446 C29.8230836,9.22436489 29.6359323,9.22159061 29.4190586,9.22131623 L28.9269596,9.22508001 L28.9269596,9.22508001 L28.0055141,9.24766683 L28.0055141,9.24766683 C27.9658815,9.19975203 27.9460652,9.12711258 27.9460652,9.02965703 C27.9460652,8.93223196 27.9658815,8.85955186 28.0055141,8.81168787 C28.3660549,8.8070031 28.6060496,8.73709728 28.7254972,8.60196027 C28.8316701,8.48184751 28.8869544,8.20711265 28.8913627,7.77776282 L28.8908794,1.66833594 C28.8853333,1.24112361 28.8302072,0.982888153 28.7255013,0.893551072 C28.6077051,0.793128153 28.3809212,0.746077139 28.0451508,0.753190683 C28.0055181,0.708609086 27.9790964,0.645826978 27.9658855,0.564935819 C27.9526747,0.484024335 27.9526747,0.414687604 27.9658855,0.356864652 C28.2534922,0.332932657 28.5865118,0.285048343 28.9649442,0.213201547 C29.3433736,0.141375076 29.6268534,0.0704022294 29.8153826,0.000103266754 C29.9320732,-0.00201365003 29.9893576,0.0420496749 29.9871219,0.132290063 L29.9607001,0.503840637 L29.9607001,0.503840637 L29.9474953,0.779067047 C29.9419964,0.932504501 29.9381497,1.10967833 29.9359413,1.31058853 L29.9342784,6.08370467 C30.1155925,6.02641015 30.3566878,5.86754438 30.6575633,5.6071277 C30.9584337,5.34672117 31.2853986,5.0233801 31.638458,4.63713498 C31.7391858,4.55085785 31.8167966,4.42617774 31.8712965,4.26310483 C31.9257862,4.10004207 31.7689092,4.00017807 31.4006654,3.96339089 C31.3610328,3.91550657 31.3412124,3.84286712 31.3412165,3.74541157 C31.3412165,3.6479865 31.3610328,3.57529624 31.4006654,3.52743225 L32.283095,3.55149382 L32.283095,3.55149382 L32.7784455,3.55319662 L32.7784455,3.55319662 L33.7653803,3.52743225 L33.7653803,3.52743225 C33.8050027,3.57532673 33.8248231,3.64795601 33.8248292,3.74541157 C33.824819,3.8428468 33.8050027,3.9155269 33.7653803,3.96339089 C33.4403645,3.97382747 33.1646465,4.02332758 32.9382255,4.11184039 C32.7570805,4.18267503 32.5873003,4.28917657 32.4288848,4.43134502 L32.3122041,4.5446589 L31.3081904,5.65436163 C31.2707528,5.69174838 31.2531112,5.73585236 31.2553469,5.78646014 C31.2568102,5.8319665 31.2670854,5.87451904 31.2861692,5.9141509 L31.3214012,5.97141229 L32.8670534,8.25686192 C33.0180892,8.47203647 33.1889474,8.6137281 33.379628,8.6819165 C33.5702964,8.75013539 33.778145,8.79342639 34.0031728,8.81171836 L34.0087965,8.81885787 C34.3861264,8.8070031 34.6355882,8.73709728 34.760871,8.60196027 C34.872228,8.48184751 34.9303444,8.20711265 34.9352468,7.77776282 L34.9345908,1.83643102 C34.9422958,1.30829102 34.8872512,0.994024802 34.769457,0.893520585 C34.6516608,0.793097666 34.4248779,0.746046653 34.0891065,0.753160197 C34.0494739,0.708578599 34.0230521,0.645796491 34.0098413,0.564905332 C33.9966304,0.483993848 33.9966304,0.414657117 34.0098413,0.356834166 C34.297449,0.332902171 34.6304675,0.285017856 35.0088999,0.21317106 C35.3873303,0.141344589 35.6708091,0.0703717428 35.8593394,-1.77635684e-15 Z M103.110084,3.38208222 C103.21577,3.38429758 103.268614,3.41947914 103.268614,3.48776916 L103.236908,3.84115987 L103.236908,3.84115987 C103.218413,4.05968795 103.20825,4.27656975 103.205202,4.49178495 C103.207641,4.57592801 103.223494,4.60478868 103.252558,4.57897667 C103.281723,4.55326629 103.30906,4.52420238 103.334668,4.49178495 C103.621446,4.18133972 103.919788,3.92703051 104.229694,3.7288675 C104.539591,3.53071464 104.884171,3.42882837 105.263435,3.42171482 C105.611165,3.42826945 105.90153,3.52217839 106.134508,3.7034315 C106.367477,3.88470493 106.517431,4.1140151 106.584501,4.39138235 C106.599643,4.44432744 106.622203,4.46434699 106.652181,4.45245721 C106.68216,4.44066905 106.708074,4.42207221 106.729821,4.3966667 C107.076179,4.0381644 107.427751,3.78485109 107.784526,3.63672678 C108.14129,3.48858214 108.489884,3.41663372 108.830318,3.42171482 C109.396719,3.43575899 109.773218,3.638871 109.959837,4.03106102 C110.119753,4.36723259 110.205686,4.7804395 110.217632,5.27068174 L110.217439,7.60950908 C110.207246,8.13023067 110.257336,8.45939468 110.367718,8.59701127 C110.478069,8.73465835 110.709808,8.80660677 111.062924,8.81168787 C111.09585,8.85957219 111.112414,8.93220147 111.112414,9.02965703 C111.112414,9.12709226 111.095951,9.19977236 111.062924,9.24763635 L110.063447,9.22357859 L110.063447,9.22357859 L109.460023,9.22229482 L109.460023,9.22229482 L108.354737,9.24763635 L108.354737,9.24763635 C108.32171,9.19975203 108.305237,9.12711258 108.305247,9.02965703 C108.305145,8.93223196 108.32171,8.85955186 108.354737,8.81168787 C108.689399,8.80617996 108.911778,8.7346177 109.021876,8.59701127 C109.119704,8.47468541 109.170881,8.20101344 109.174623,7.77598823 L109.173801,5.28442685 C109.171037,4.84820399 109.097279,4.54160008 108.952519,4.36463543 C108.807738,4.18763012 108.608477,4.10257246 108.354737,4.10866978 C108.099595,4.10125137 107.837034,4.15904384 107.567044,4.2820675 C107.297044,4.40509117 107.004759,4.63793779 106.690188,4.98057689 L106.698038,5.10401593 L106.698038,5.10401593 L106.703544,5.37072557 L106.703544,5.37072557 L106.703805,7.60950908 C106.694995,8.13023067 106.74233,8.45939468 106.845822,8.59701127 C106.949294,8.73465835 107.161765,8.80660677 107.483236,8.81168787 C107.516162,8.85957219 107.532716,8.93220147 107.532726,9.02965703 C107.532726,9.12709226 107.516264,9.19977236 107.483236,9.24763635 L106.539491,9.22357859 L106.539491,9.22357859 L105.946386,9.22229482 L105.946386,9.22229482 L104.841093,9.24763635 L104.841093,9.24763635 C104.808066,9.19975203 104.791603,9.12711258 104.791603,9.02965703 C104.791603,8.93223196 104.808066,8.85955186 104.841093,8.81168787 C105.18732,8.80617996 105.413002,8.7346177 105.51814,8.59701127 C105.611587,8.47468541 105.659387,8.20101344 105.661505,7.77598823 L105.660157,5.31084858 C105.655198,4.87352821 105.57263,4.56252406 105.412453,4.37784629 C105.252277,4.19311771 105.044205,4.10358868 104.78825,4.10866978 C104.586205,4.10919822 104.37599,4.17520174 104.157604,4.3066702 C103.982895,4.4118531 103.795023,4.55693038 103.593997,4.74189683 L103.440762,4.88810081 C103.38426,4.94417587 103.333652,5.0163885 103.287922,5.10459645 C103.253625,5.17079814 103.231617,5.2507874 103.221471,5.34457281 L103.215262,5.44295726 L103.215262,7.60950908 C103.206238,8.12940753 103.254011,8.45692527 103.3586,8.59205212 C103.46318,8.72713832 103.67874,8.80040783 104.005262,8.81168787 C104.044895,8.85957219 104.064711,8.93220147 104.064711,9.02965703 C104.064711,9.12709226 104.044895,9.19977236 104.005262,9.24763635 L103.043132,9.22357859 L103.043132,9.22357859 L102.313632,9.2234757 L102.313632,9.2234757 L101.273295,9.24763635 L101.273295,9.24763635 C101.233663,9.19975203 101.213846,9.12711258 101.213846,9.02965703 C101.213846,8.93223196 101.233663,8.85955186 101.273295,8.81168787 C101.628607,8.80617996 101.869146,8.7346177 101.994924,8.59701127 C102.106735,8.47468541 102.165809,8.20101344 102.171847,7.77598823 L102.171758,4.88356314 C102.164392,4.59993218 102.111229,4.41280283 102.01226,4.32218789 C101.896808,4.21649079 101.663697,4.15409484 101.312928,4.13509152 C101.298599,4.08996116 101.28803,4.0282969 101.279901,3.95014953 C101.272686,3.87199201 101.274921,3.81031758 101.287014,3.76519738 L101.789843,3.69372781 C102.021938,3.65759385 102.225053,3.62086357 102.399186,3.58354795 C102.689409,3.52135525 102.926371,3.45423388 103.110084,3.38208222 Z M86.7457909,-1.77635684e-15 C86.8624814,-0.00204413665 86.9197658,0.0420191882 86.9175301,0.132259577 L86.8921043,0.50381015 L86.8921043,0.50381015 L86.8740638,0.940386138 L86.8740638,0.940386138 L86.8646968,1.51938036 L86.8541281,4.49178495 C86.8567093,4.5754199 86.8726741,4.60499192 86.9020124,4.57948478 C86.9313405,4.55397765 86.9585346,4.52471049 86.9835844,4.49178495 C87.3858757,4.0541902 87.766618,3.76355111 88.1258144,3.61987784 C88.4850046,3.47618425 88.8264456,3.41012991 89.1501393,3.42171482 C89.3842389,3.42227375 89.5970416,3.46078851 89.7885464,3.53730992 C89.9800409,3.61383133 90.1327342,3.72501602 90.2466271,3.87088433 C90.3961497,4.0755105 90.4940707,4.33009409 90.5404002,4.63462491 C90.5751321,4.86303065 90.5956134,5.10884806 90.6018398,5.37208143 L90.6033144,7.60950908 C90.59395,8.12940753 90.6489946,8.45692527 90.7684472,8.59205212 C90.8878877,8.72713832 91.1278824,8.80040783 91.4884304,8.81168787 C91.5214474,8.85957219 91.5379711,8.93220147 91.5379711,9.02965703 C91.5379711,9.12709226 91.5214474,9.19977236 91.4884304,9.24763635 L90.7783554,9.229446 C90.5779872,9.22436489 90.3479016,9.22159061 90.0880967,9.22131623 L89.6246181,9.22508001 L89.6246181,9.22508001 L88.7406055,9.24763635 L88.7406055,9.24763635 C88.7075783,9.19975203 88.6910606,9.12711258 88.6910647,9.02965703 C88.6910647,8.93223196 88.7075783,8.85955186 88.7406055,8.81168787 C89.0752723,8.80039766 89.2976519,8.72718913 89.4077461,8.59205212 C89.5055996,8.47193936 89.5565148,8.19981405 89.5604118,7.77568333 L89.5596691,5.60148767 C89.5613154,5.40206454 89.5514072,5.21567952 89.5299446,5.04234278 C89.5084729,4.86900603 89.4655386,4.71631889 89.4011407,4.58426102 C89.3217617,4.43209215 89.219599,4.3150337 89.0946516,4.2330247 C88.9696961,4.15104618 88.8384705,4.10958438 88.7009739,4.10866978 C88.4374709,4.11035671 88.1665424,4.17866706 87.8881854,4.31360083 C87.6098223,4.44855492 87.3435166,4.64005153 87.0892683,4.88810081 C87.0336729,4.94414538 86.9830347,5.01634785 86.9373454,5.10475905 C86.9030784,5.17106744 86.8808842,5.2513006 86.8707712,5.34546709 L86.8646856,5.44427835 L86.8646887,7.60950908 C86.8556585,8.13601296 86.9034372,8.46683342 87.0080245,8.60196027 C87.1126069,8.73709728 87.3281615,8.80660677 87.6546884,8.81168787 C87.694321,8.85957219 87.7141342,8.93220147 87.7141373,9.02965703 C87.7141373,9.12709226 87.694321,9.19977236 87.6546884,9.24763635 L86.6925559,9.22357859 C86.5863474,9.22221559 86.471986,9.22145342 86.3494719,9.22131623 L85.8398678,9.22508001 L85.8398678,9.22508001 L84.898937,9.24763635 L84.898937,9.24763635 C84.8593044,9.19975203 84.8394881,9.12711258 84.8394881,9.02965703 C84.8394881,8.93223196 84.8593044,8.85955186 84.898937,8.81168787 C85.2725789,8.8070031 85.5220397,8.73709728 85.6473224,8.60196027 C85.7586804,8.48184751 85.8167969,8.20711265 85.8216993,7.77776282 L85.8212876,1.66830545 C85.8157415,1.24109312 85.7606155,0.982857666 85.6559095,0.893520585 C85.5381133,0.793097666 85.3113305,0.746046653 84.975559,0.753160197 C84.9359264,0.708578599 84.9095046,0.645796491 84.8962938,0.564905332 C84.8830829,0.483993848 84.8830829,0.414657117 84.8962938,0.356834166 C85.1839005,0.332902171 85.51692,0.285017856 85.8953524,0.21317106 C86.2737818,0.141344589 86.5572616,0.0703717428 86.7457909,-1.77635684e-15 Z M20.2321694,-1.77635684e-15 C20.348859,-0.00204413665 20.4061433,0.0420191882 20.4039076,0.132259577 L20.3784818,0.50381015 L20.3784818,0.50381015 L20.3604325,0.940386138 L20.3604325,0.940386138 L20.3510642,1.51938036 L20.3404955,4.49178495 C20.3430767,4.5754199 20.3590415,4.60499192 20.3883798,4.57948478 C20.4177181,4.55397765 20.4449121,4.52471049 20.469962,4.49178495 C20.8722522,4.0541902 21.2529945,3.76355111 21.6121909,3.61987784 C21.9713812,3.47618425 22.3128221,3.41012991 22.6365158,3.42171482 C22.8706155,3.42227375 23.0834181,3.46078851 23.2749229,3.53730992 C23.4664175,3.61383133 23.6191107,3.72501602 23.7330036,3.87088433 C23.8825263,4.0755105 23.9804472,4.33009409 24.0267767,4.63462491 C24.0615086,4.86303065 24.0819899,5.10884806 24.0882163,5.37208143 L24.0896909,7.60950908 C24.0803265,8.12940753 24.1353711,8.45692527 24.2548237,8.59205212 C24.3742652,8.72713832 24.6142589,8.80040783 24.9748079,8.81168787 C25.0078249,8.85957219 25.0243487,8.93220147 25.0243487,9.02965703 C25.0243487,9.12709226 25.0078249,9.19977236 24.9748079,9.24763635 L24.2647319,9.229446 C24.0643637,9.22436489 23.8342781,9.22159061 23.5744732,9.22131623 L23.1109946,9.22508001 L23.1109946,9.22508001 L22.226982,9.24763635 L22.226982,9.24763635 C22.1939548,9.19975203 22.1774372,9.12711258 22.1774412,9.02965703 C22.1774412,8.93223196 22.1939548,8.85955186 22.226982,8.81168787 C22.5616488,8.80039766 22.7840284,8.72718913 22.8941227,8.59205212 C22.9919761,8.47193936 23.0428913,8.19981405 23.0467884,7.77568333 L23.0460456,5.60148767 C23.0476919,5.40206454 23.0377837,5.21567952 23.0163212,5.04234278 C22.9948494,4.86900603 22.9519151,4.71631889 22.8875172,4.58426102 C22.8081382,4.43209215 22.7059755,4.3150337 22.5810292,4.2330247 C22.4560737,4.15104618 22.3248471,4.10958438 22.1873504,4.10866978 C21.9238485,4.11035671 21.652919,4.17866706 21.3745619,4.31360083 C21.0961988,4.44855492 20.8298931,4.64005153 20.5756449,4.88810081 C20.5200495,4.94414538 20.4694112,5.01634785 20.4237219,5.10475905 C20.3894549,5.17106744 20.3672607,5.2513006 20.3571477,5.34546709 L20.3510621,5.44427835 L20.3510662,7.60950908 C20.3420361,8.13601296 20.3898147,8.46683342 20.4944021,8.60196027 C20.5989844,8.73709728 20.814539,8.80660677 21.1410659,8.81168787 C21.1806985,8.85957219 21.2005118,8.93220147 21.2005148,9.02965703 C21.2005148,9.12709226 21.1806985,9.19977236 21.1410659,9.24763635 L20.1789334,9.22357859 C20.0727249,9.22221559 19.9583635,9.22145342 19.8358495,9.22131623 L19.3262453,9.22508001 L19.3262453,9.22508001 L18.3853145,9.24763635 L18.3853145,9.24763635 C18.3456819,9.19975203 18.3258656,9.12711258 18.3258656,9.02965703 C18.3258656,8.93223196 18.3456819,8.85955186 18.3853145,8.81168787 C18.7589564,8.8070031 19.0084183,8.73709728 19.1337,8.60196027 C19.2450579,8.48184751 19.3031745,8.20711265 19.3080768,7.77776282 L19.3076651,1.66830545 C19.302119,1.24109312 19.246993,0.982857666 19.142287,0.893520585 C19.0244908,0.793097666 18.797708,0.746046653 18.4619365,0.753160197 C18.4223039,0.708578599 18.3958822,0.645796491 18.3826713,0.564905332 C18.3694604,0.483993848 18.3694604,0.414657117 18.3826713,0.356834166 C18.670278,0.332902171 19.0032975,0.285017856 19.38173,0.21317106 C19.7601603,0.141344589 20.0436391,0.0703717428 20.2321694,-1.77635684e-15 Z M3.4149655,0.674098235 C4.60832656,0.70355847 5.38885815,0.931984534 5.75656132,1.35939675 C6.12425228,1.7868293 6.29048768,2.23654756 6.25526547,2.70854137 C6.24433196,3.07352716 6.11789481,3.40968277 5.87595301,3.71701837 C5.68238981,3.96289497 5.45686038,4.16612608 5.19936472,4.3267065 L5.0002493,4.43914472 L5.0002493,4.46556645 C5.58784431,4.62767396 6.07058466,4.89794799 6.44847137,5.27636822 C6.82634486,5.65480877 7.02174986,6.15956553 7.03469651,6.79064868 C7.06028393,7.39008672 6.83405086,7.94163029 6.35599631,8.44528954 C5.87792854,8.94894879 4.99446396,9.21643837 3.70560053,9.24783959 L2.72036998,9.23996547 L2.72036998,9.23996547 L2.51333496,9.23462872 C2.27774149,9.22649896 2.03224292,9.22243408 1.77683823,9.22141785 L1.31528837,9.22357732 L1.31528837,9.22357732 L0.0594478884,9.24773797 L0.0594478884,9.24773797 C0.0198163016,9.19985365 0,9.12721421 0,9.02975865 C0,8.93233358 0.0198152853,8.85965349 0.0594478884,8.8117895 C0.511912892,8.81288701 0.819061501,8.74462748 0.980893615,8.60702105 C1.12474348,8.48469519 1.20070639,8.20841366 1.20888799,7.77816934 L1.20890081,2.14356524 C1.20074473,1.71332092 1.12474258,1.43703939 0.980893615,1.31471353 C0.819062518,1.17711727 0.511913908,1.10892886 0.0594478884,1.10994508 C0.0198163016,1.06207093 0,0.989431485 0,0.89197593 C0,0.794550861 0.0198152853,0.721860602 0.0594478884,0.673996613 L1.31157332,0.698058176 C1.45358837,0.699422452 1.6042733,0.700184617 1.76362838,0.700316726 L2.19627629,0.696518601 L2.19627629,0.696518601 L3.17056509,0.676168314 C3.25496722,0.675114455 3.33643401,0.674436975 3.4149655,0.674098235 Z M73.3791254,3.38208222 C73.4848103,3.38429758 73.5376517,3.41947914 73.5376537,3.48776916 L73.5046266,3.84115987 L73.5046266,3.84115987 C73.485359,4.05968795 73.4743432,4.27656975 73.4715994,4.49178495 C73.4746176,4.57582639 73.4916799,4.60570327 73.5227864,4.58090749 C73.5538828,4.55621333 73.5808533,4.52643807 73.6036979,4.49178495 C74.002784,4.0541902 74.3704821,3.76355111 74.7068074,3.61987784 C75.0431256,3.47618425 75.3711911,3.41012991 75.6910048,3.42171482 C75.9249388,3.42227375 76.1374112,3.46078851 76.3284211,3.53730992 C76.5194197,3.61383133 76.6724433,3.72501602 76.7874926,3.87088433 C76.9352816,4.07840673 77.0327077,4.33381345 77.079779,4.63710449 C77.1150673,4.86458039 77.1359906,5.10970232 77.142489,5.37247029 L77.1441769,5.64112027 L77.1434413,7.77568333 C77.1478408,8.19981405 77.2031306,8.47193936 77.3093107,8.59205212 C77.4287512,8.72713832 77.6687449,8.80040783 78.0292939,8.81168787 C78.0623109,8.85957219 78.0788346,8.93220147 78.0788346,9.02965703 C78.0788346,9.12709226 78.0623109,9.19977236 78.0292939,9.24763635 L77.3192189,9.229446 C77.1188507,9.22436489 76.8887641,9.22159061 76.6289602,9.22131623 L76.1654813,9.22508001 L76.1654813,9.22508001 L75.281469,9.24763635 L75.281469,9.24763635 C75.2484418,9.19975203 75.2319252,9.12711258 75.2319282,9.02965703 C75.2319282,8.93223196 75.2484418,8.85955186 75.281469,8.81168787 C75.6161348,8.80039766 75.8385154,8.72718913 75.9486086,8.59205212 C76.0464621,8.47193936 76.0973773,8.19981405 76.1012743,7.77568333 L76.1005316,5.60148767 C76.1021779,5.40222714 76.0922697,5.21617747 76.0708071,5.04332851 C76.0493344,4.87049987 76.0064001,4.71747738 75.9420022,4.58426102 C75.859981,4.4315129 75.7564972,4.31423088 75.6315509,4.23252675 C75.5065954,4.15074132 75.3766909,4.10950308 75.2418353,4.10866978 C74.983948,4.11061076 74.7268899,4.1794089 74.4706611,4.31509467 C74.2144262,4.45078044 73.9606708,4.64178927 73.709395,4.88810081 C73.6537986,4.94590344 73.6031603,5.01858354 73.5574711,5.10608013 C73.5232041,5.17172544 73.5010098,5.25130123 73.4908969,5.3448075 L73.4848113,5.44295726 L73.4848113,7.60950908 C73.4757263,8.12940753 73.5236146,8.45692527 73.6284774,8.59205212 C73.7333341,8.72713832 73.949659,8.80040783 74.2774532,8.81168787 C74.3170858,8.85957219 74.336899,8.93220147 74.3369021,9.02965703 C74.3368919,9.12709226 74.3170858,9.19977236 74.2774532,9.24763635 L73.3132762,9.22357859 C73.2067649,9.22221559 73.0922041,9.22145342 72.9695935,9.22131623 L72.4587791,9.22508001 L72.4587791,9.22508001 L71.5164174,9.24763635 L71.5164174,9.24763635 C71.4767848,9.19975203 71.4569685,9.12711258 71.4569685,9.02965703 C71.4569685,8.93223196 71.4767848,8.85955186 71.5164174,8.81168787 C71.9017276,8.80039766 72.1549332,8.72718913 72.2760321,8.59205212 C72.3836774,8.47193936 72.4391252,8.19981405 72.4423884,7.77568333 L72.4410979,4.88352332 C72.4332783,4.59980277 72.3793571,4.41252409 72.2793348,4.32170011 C72.1626392,4.21577943 71.9303515,4.15348511 71.5824707,4.13509152 C71.5681623,4.08996116 71.5571668,4.0282969 71.5494436,3.95014953 C71.5417406,3.87199201 71.5439356,3.81031758 71.556049,3.76519738 L72.0595741,3.69372781 C72.2921152,3.65759385 72.4958244,3.62086357 72.6707017,3.58354795 C72.9621609,3.52135525 73.1983021,3.45423388 73.3791254,3.38208222 Z M114.067228,3.85767346 C113.518428,3.88382081 113.126513,4.13207334 112.891481,4.60242088 C112.656439,5.07278875 112.541901,5.60836748 112.547999,6.20917742 C112.545712,6.56285268 112.606055,6.94759379 112.729038,7.36340077 C112.852011,7.77920775 113.051312,8.13851287 113.326942,8.44129579 C113.602571,8.74407872 113.968228,8.90273108 114.423921,8.91736465 C114.755006,8.93883739 115.070411,8.80672872 115.370135,8.52104878 C115.669849,8.23536885 115.830046,7.6673117 115.850675,6.81686718 C115.847362,5.8439579 115.692144,5.10801095 115.384992,4.60902632 C115.077839,4.11005184 114.638588,3.8597059 114.067228,3.85767346 Z M62.3864589,3.85767346 C61.8376622,3.88382081 61.4457455,4.13207334 61.2107069,4.60242088 C60.9756652,5.07278875 60.8611321,5.60836748 60.8672294,6.20917742 C60.8649439,6.56285268 60.9252892,6.94759379 61.048264,7.36340077 C61.1712359,7.77920775 61.3705381,8.13851287 61.6461706,8.44129579 C61.9217991,8.74407872 62.2874577,8.90273108 62.7431482,8.91736465 C63.074237,8.93883739 63.3896424,8.80672872 63.6893644,8.52104878 C63.9890774,8.23536885 64.1492541,7.6673117 64.1699037,6.81686718 C64.1665959,5.8439579 64.0113702,5.10801095 63.7042267,4.60902632 C63.397074,4.11005184 62.9578187,3.8597059 62.3864589,3.85767346 Z M43.6316292,3.85767346 C43.0828325,3.88382081 42.6909158,4.13207334 42.4558772,4.60242088 C42.2208356,5.07278875 42.1063024,5.60836748 42.1123997,6.20917742 C42.1101143,6.56285268 42.1704595,6.94759379 42.2934344,7.36340077 C42.4164062,7.77920775 42.6157084,8.13851287 42.891341,8.44129579 C43.1669695,8.74407872 43.532628,8.90273108 43.9883186,8.91736465 C44.3194073,8.93883739 44.6348127,8.80672872 44.9345348,8.52104878 C45.2342477,8.23536885 45.3944244,7.6673117 45.415074,6.81686718 C45.4117662,5.8439579 45.2565405,5.10801095 44.949397,4.60902632 C44.6729596,4.15994929 44.2895191,3.91226137 43.799074,3.86573291 L43.6316292,3.85767346 Z M69.3615684,6.14312308 L68.317923,6.42055131 C67.839088,6.55722281 67.5080501,6.75747924 67.3248083,7.02130027 C67.1415623,7.28513146 67.054269,7.5692769 67.0629069,7.87372643 C67.0612535,8.09198013 67.137215,8.29949237 67.2907913,8.49627333 C67.4443636,8.69306444 67.6854588,8.79817214 68.0140771,8.81168787 C68.2028767,8.80535682 68.3999361,8.74535916 68.6052553,8.63168472 C68.7421308,8.55590854 68.8724021,8.47315882 68.9960697,8.38343558 L69.1766183,8.24362056 C69.2305572,8.20533953 69.2745901,8.15971123 69.3087249,8.10656289 C69.3314747,8.07115099 69.3468806,8.02874749 69.3549547,7.97939154 L69.3615684,7.90014816 L69.3615684,6.14312308 Z M50.6067387,6.14312308 L49.5630934,6.42055131 C49.0842584,6.55722281 48.7532204,6.75747924 48.5699786,7.02130027 C48.3867327,7.28513146 48.2994393,7.5692769 48.3080772,7.87372643 C48.3064238,8.09198013 48.3823853,8.29949237 48.5359616,8.49627333 C48.6895339,8.69306444 48.9306292,8.79817214 49.2592475,8.81168787 C49.448047,8.80535682 49.6451064,8.74535916 49.8504257,8.63168472 C49.9873011,8.55590854 50.1175725,8.47315882 50.24124,8.38343558 L50.4217886,8.24362056 C50.4757275,8.20533953 50.5197604,8.15971123 50.5538952,8.10656289 C50.576645,8.07115099 50.5920509,8.02874749 50.600125,7.97939154 L50.6067387,7.90014816 L50.6067387,6.14312308 Z M11.0900467,6.14312308 L10.0464014,6.42055131 C9.56756638,6.55722281 9.23652845,6.75747924 9.05328661,7.02130027 C8.87004069,7.28513146 8.78274734,7.5692769 8.79138522,7.87372643 C8.78973183,8.09198013 8.8656933,8.29949237 9.01926964,8.49627333 C9.17284191,8.69306444 9.41393618,8.79817214 9.7425555,8.81168787 C9.93135506,8.80535682 10.1284145,8.74535916 10.3337337,8.63168472 C10.4706084,8.55590854 10.60088,8.47315882 10.7245478,8.38343558 L10.9050966,8.24362056 C10.9590356,8.20533953 11.0030684,8.15971123 11.0372033,8.10656289 C11.059953,8.07115099 11.075359,8.02874749 11.083433,7.97939154 L11.0900467,7.90014816 L11.0900467,6.14312308 Z M3.24322625,4.83526751 L2.33168756,4.83526751 L2.33168756,7.9265699 C2.31957523,8.15417283 2.38673013,8.35618732 2.53315126,8.53260321 C2.67956629,8.70902927 2.97790732,8.80254189 3.42817535,8.81168787 C4.4057633,8.79819246 5.05308668,8.62370739 5.37014852,8.28821232 C5.68719918,7.95271726 5.83251263,7.53712368 5.80610105,7.04145193 C5.81242499,6.42935178 5.6115131,5.91304058 5.20336334,5.49249801 C4.83230795,5.11018659 4.25859381,4.89435057 3.48221864,4.84505868 L3.24322625,4.83526751 Z M3.48101882,1.12305433 L3.14579563,1.12715771 C2.79194942,1.13950669 2.56846944,1.17832205 2.47535473,1.24360858 C2.37558389,1.3135669 2.32570209,1.4288176 2.32570209,1.5893607 L2.33168756,1.69112164 L2.33168756,4.386098 L3.30927958,4.386098 C3.86715216,4.39298798 4.31686636,4.28014685 4.65842217,4.0475746 C4.99996883,3.81501252 5.17554431,3.42145061 5.1851984,2.86686854 C5.16042294,2.20468904 4.96886841,1.74562155 4.61053277,1.48965591 C4.25218798,1.23370043 3.87568435,1.11146942 3.48101882,1.12305433 Z M114.054017,0.541786313 C114.410975,0.559681958 114.65813,0.659312225 114.795472,0.840677114 C114.932835,1.02206233 114.998076,1.17783878 114.991979,1.30800648 C114.988208,1.43911926 114.94634,1.56022227 114.866567,1.67140696 C114.813358,1.74553687 114.75354,1.81819438 114.687119,1.88938252 L114.582533,1.99506306 C114.469966,2.09855496 114.381301,2.21194486 114.31667,2.3352429 C114.268142,2.42772406 114.23406,2.53320394 114.21435,2.65168256 L114.199428,2.77449409 L113.829524,2.77449409 C113.839981,2.55185032 113.878557,2.3630467 113.945119,2.20808322 C113.989521,2.10478778 114.036123,2.01139711 114.08493,1.9279112 L114.159796,1.81011091 C114.213147,1.73085587 114.255015,1.65159066 114.285299,1.57232545 C114.315582,1.49307041 114.330978,1.41379504 114.331537,1.33452984 C114.33296,1.18343816 114.303794,1.07283271 114.24404,1.00261187 C114.184317,0.932421509 114.085784,0.897758225 113.948452,0.898581364 C113.825428,0.900512183 113.741224,0.916466846 113.695799,0.946445353 C113.650374,0.976525483 113.629339,1.00894292 113.631371,1.04390091 C113.631371,1.06971291 113.63442,1.09064706 113.639501,1.10660172 L113.689092,1.23698282 L113.689092,1.23698282 C113.702405,1.27526385 113.709518,1.32089216 113.710535,1.37404049 C113.70586,1.44917984 113.672325,1.5135879 113.609827,1.56724435 C113.54735,1.6209008 113.48405,1.6494566 113.419926,1.65148904 C113.295246,1.64654004 113.204467,1.60687695 113.147457,1.53259123 C113.090447,1.45828518 113.062389,1.3790403 113.063178,1.29479561 C113.069818,1.13627536 113.165596,0.974442231 113.350549,0.809306384 C113.535501,0.6441807 113.769983,0.554997181 114.054017,0.541786313 Z M67.8819736,0.330514052 C67.9158279,0.330514052 67.9505014,0.333562714 67.9860081,0.338643817 L68.0801305,0.356834166 L69.0048922,2.02150512 C69.0370861,2.08673632 69.0585487,2.14448813 69.0692901,2.19489268 C69.0799808,2.24527689 69.0849694,2.29314088 69.0841473,2.33856594 C69.0824908,2.37352393 69.0626745,2.40604299 69.0246984,2.4360215 C68.9867141,2.46600001 68.940476,2.48185305 68.8859863,2.48388549 C68.8485518,2.48520657 68.8012142,2.46600001 68.7439705,2.42606254 C68.7010339,2.39613992 68.6450946,2.34992602 68.5761525,2.28748943 L66.9968566,0.779683554 L67.0232783,0.634364009 C67.0772203,0.587028454 67.1774014,0.526492194 67.3238215,0.452714579 C67.4702386,0.378987775 67.6562893,0.338643817 67.8819736,0.330514052 Z M10.5764748,0.332729413 L10.6276704,0.330463241 C10.6759409,0.324874028 10.7696273,0.339202738 10.9087276,0.37334775 C11.0130482,0.398948888 11.1226655,0.454274477 11.2375795,0.539315945 L11.354259,0.634262387 L11.3938916,0.779581932 L9.87466113,2.21954619 C9.77722996,2.31670704 9.69796374,2.38327965 9.63686856,2.41935548 C9.57576524,2.45543131 9.52292177,2.47260544 9.47834018,2.470573 C9.43017742,2.46915029 9.38779086,2.45207778 9.35118659,2.41935548 C9.31458233,2.38661285 9.29532495,2.34647214 9.29337322,2.29881139 C9.29297748,2.22924093 9.30470466,2.17025949 9.32856552,2.12178577 L9.35729724,2.06807211 L9.35729724,2.06807211 L10.4427203,0.356783355 L10.4790464,0.347002231 L10.4790464,0.347002231 L10.5764748,0.332729413 L10.5764748,0.332729413 Z"/>
	</g>
</svg>