<?xml version="1.0" encoding="UTF-8"?>
<svg xmlns="http://www.w3.org/2000/svg" width="113" height="13" viewBox="0 0 113 13">
	<title>
		Combined Shape
	</title>
	<g id="Page-1" fill="none" fill-rule="evenodd" stroke="none" stroke-width="1">
		<path id="Combined-Shape" fill="#000" fill-rule="nonzero" d="M55.9043245,3.32905785 C55.9313817,3.32905785 55.9584388,3.34210221 55.9584388,3.36809286 L55.9584388,3.36809286 L55.9178531,4.40842466 L55.9584388,4.40842466 C56.5807072,3.49813433 57.2976705,3.36809286 57.7305532,3.36809286 C59.0427288,3.36809286 60.0031891,4.64249736 60.0031891,6.02094288 C60.0031891,7.07427982 59.6649983,7.88053893 59.0562574,8.4787356 C58.5286819,8.98589637 57.8793563,9.20696394 57.162395,9.20696394 C56.6754021,9.20696394 56.3101562,9.10293272 55.9584388,8.92087073 L55.9584388,8.92087073 L55.9584388,11.170601 C55.9584388,11.5347152 56.1072429,11.6777422 56.526598,11.7167772 L56.526598,11.7167772 L56.7836225,11.7427678 C56.8512562,11.7557827 56.9053705,11.7817734 56.9053705,11.846799 L56.9053705,11.846799 L56.9053705,12.0938769 L56.8783134,12.1198675 C56.3777929,12.1069212 55.9449092,12.0938769 55.4308612,12.0938769 C54.9438683,12.0938769 54.5245122,12.1068231 54.0239917,12.1198675 L54.0239917,12.1198675 L53.9969346,12.0938769 L53.9969346,11.846799 C53.9969346,11.7818028 54.0375121,11.7557141 54.105155,11.7427678 L54.105155,11.7427678 L54.3621795,11.7167772 C54.7950622,11.6777618 54.9438653,11.5347152 54.9438653,11.170601 L54.9438653,11.170601 L54.9438673,4.90253127 C54.9438673,4.25232389 54.8356469,4.1222628 54.6462611,4.09627216 L54.6462611,4.09627216 L54.0645744,4.04429088 L54.0375172,3.73218741 C54.9979755,3.58914081 55.5120245,3.47210446 55.9043245,3.32905785 Z M36.8763906,3.47208484 L36.9169763,3.49807548 L36.9169763,3.74515331 C36.9169763,3.81014953 36.862862,3.83614017 36.7681722,3.84918453 C36.2676518,3.88819991 35.9970997,4.3563453 35.807714,4.7334646 C35.0907517,6.1899409 34.4955363,7.52937104 33.4133301,10.0391745 C33.0075025,10.975475 32.4934525,12.0938376 31.5329953,12.0938376 C31.2759708,12.0938376 30.7483942,11.950791 30.7483942,11.4826358 C30.7483942,11.0925114 31.0460024,10.975475 31.2624432,10.975475 C31.4653565,10.975475 31.6006371,11.0535058 31.6817984,11.157537 C31.8170739,11.2875883 31.9117678,11.3786046 32.0470433,11.3786046 C32.2499566,11.3786046 32.750478,10.2342416 33.0886678,9.4409876 C33.1698311,9.28493586 33.1968883,9.15489439 33.1968883,9.03785804 C33.1968883,8.90781657 33.0751403,8.55669772 32.9669199,8.29661476 L32.9669199,8.29661476 L31.2624432,4.48638678 C31.0460024,3.99223113 30.8836697,3.88821953 30.4372605,3.84918453 C30.3560982,3.83623824 30.301984,3.81014953 30.301984,3.75816824 L30.301984,3.75816824 L30.301984,3.49808529 L30.3290411,3.47208484 C30.5995932,3.48504093 31.0054218,3.49808529 31.4653585,3.49808529 C31.9523514,3.49808529 32.4393464,3.48513901 32.9398668,3.47208484 L32.9398668,3.47208484 L32.966924,3.51112965 L32.9669148,3.74519254 C32.9669148,3.81018876 32.8857433,3.84922376 32.8181107,3.84922376 C32.3040617,3.88823914 32.114677,3.99227036 32.3175902,4.4344153 L32.3175902,4.4344153 L33.805625,7.78949322 L35.3071874,4.48642601 C35.6047946,3.9662601 35.198967,3.88825876 34.7796119,3.84922376 C34.7119782,3.84922376 34.6443353,3.82323312 34.6443353,3.75820747 L34.6443353,3.75820747 L34.6443353,3.51111984 L34.6713925,3.47208484 C35.1719129,3.48503112 35.4695211,3.49807548 35.9429864,3.49807548 C36.3217589,3.49807548 36.5382008,3.4851292 36.8763906,3.47208484 L36.8763906,3.47208484 Z M72.5755475,7.90478794e-14 C72.6972914,7.90478794e-14 72.7514056,0.0390251928 72.7514056,0.130041476 C72.7514056,0.130041476 72.7108199,0.650217186 72.7108199,1.49548187 L72.7108179,1.49550149 L72.7108179,7.56845508 C72.7108179,8.21867226 72.7649291,8.29671284 73.0490077,8.32270348 L73.0490077,8.32270348 L73.6983322,8.38772913 L73.738918,8.68682746 C72.9002077,8.82987407 72.3049934,8.99893093 72.0073862,9.23300362 L72.0073862,9.23300362 L71.6962515,9.23300362 L71.7233086,8.32271329 L71.6962515,8.30966893 C71.0739831,8.79081945 70.3976024,9.20695413 69.8564993,9.20695413 C68.3955206,9.20695413 67.5838644,8.03658085 67.5838644,6.43706776 C67.5838644,5.47475692 67.9085267,4.70751319 68.4902125,4.1483319 C69.0313156,3.65416645 69.6265309,3.36808305 70.5193514,3.36808305 C70.7899024,3.36808305 71.3851178,3.48511939 71.6962515,3.65416645 L71.6962515,3.65416645 L71.6962515,1.75555502 C71.6962515,0.91029033 71.560976,0.741233469 71.2904239,0.741233469 L71.2904239,0.741233469 L70.8575412,0.715242828 C70.8169657,0.715242828 70.77638,0.689252187 70.77638,0.650217186 L70.77638,0.650217186 L70.7493228,0.338113721 C71.3039535,0.299098336 72.2373576,0.130041476 72.5755475,7.90478794e-14 Z M97.5834981,9.80778912e-06 C97.7052756,9.80778912e-06 97.7593491,0.0390350006 97.7593491,0.130051283 C97.7593491,0.130051283 97.718743,0.650226994 97.718743,1.49549168 L97.718743,1.49549168 L97.718743,4.08332588 C98.1786736,3.60217536 98.7197859,3.36810266 99.3691064,3.36810266 C100.546,3.36810266 101.736433,4.34340883 101.736433,5.9299266 C101.736433,7.99758508 100.153702,9.20697375 98.77389,9.20697375 C98.1922022,9.20697375 97.7593185,9.05092202 97.3670205,8.72582323 C97.2452735,8.89488009 97.0558837,9.11594766 96.9206082,9.23298401 C96.7853327,9.23298401 96.7177408,9.21993965 96.6365286,9.16795836 C96.6906021,8.88186516 96.7041715,8.66078778 96.7041715,8.15362701 L96.7041715,8.15362701 L96.7042327,1.75556483 C96.7042327,0.910300138 96.5689572,0.741243277 96.2984061,0.741243277 L96.2984061,0.741243277 L95.8655224,0.715252636 C95.8249163,0.715252636 95.7843102,0.689261995 95.7843102,0.650226994 L95.7843102,0.650226994 L95.7572734,0.338123529 C96.2983755,0.299108144 97.2453042,0.130051283 97.5834981,9.80778912e-06 Z M40.5673942,3.36809286 C41.8660413,3.36809286 42.5830056,4.00529511 42.5830056,4.69451787 C42.5830056,5.07163717 42.2312872,5.25369916 41.9472086,5.25369916 C41.663129,5.25369916 41.5008004,5.12365768 41.4602147,4.79854909 C41.4061045,4.36940928 41.2978831,3.81022799 40.4997565,3.81022799 C39.606936,3.81022799 38.9170278,4.65550248 38.9170278,6.08595872 C38.9170278,7.60745085 39.6745738,8.63478733 40.7161973,8.63478733 C41.2978831,8.63478733 41.9201535,8.29667361 42.3395087,7.71148207 C42.4612566,7.7244872 42.569474,7.77650771 42.6235883,7.89354406 C41.9472086,8.95988612 41.2302453,9.20696394 40.4185912,9.20696394 C38.7141155,9.20696394 37.7671828,8.04959579 37.7671828,6.37205192 C37.7671828,4.52546101 39.1064156,3.36809286 40.5673942,3.36809286 Z M110.713835,3.36809286 C112.499473,3.36809286 112.918829,4.53846614 112.918829,5.63081846 C112.918829,5.77381602 112.824139,5.85188602 112.675335,5.85188602 L112.675335,5.85188602 L109.117575,5.85188602 C109.117575,7.78951284 110.280951,8.56976169 111.0385,8.56976169 C111.78251,8.56976169 112.25598,8.335689 112.729449,7.84152354 C112.878253,7.85452867 112.959394,7.91955431 113,8.04959579 C112.485955,8.72581342 111.68782,9.20696394 110.713835,9.20696394 C108.860553,9.20696394 108.035371,7.98457015 108.035371,6.48908827 C108.035371,4.51245588 109.428712,3.36809286 110.713835,3.36809286 Z M50.2873388,3.36809286 C52.2894206,3.36809286 53.0604952,4.94159569 53.0604952,6.29403096 C53.0604952,7.59444572 52.1812002,9.20696394 50.2602837,9.20696394 C48.4475887,9.20696394 47.4871274,7.73749232 47.4871274,6.41106731 C47.4871274,4.62949223 48.4881713,3.36809286 50.2873388,3.36809286 Z M64.020112,3.36807324 C65.8057519,3.36807324 66.2251091,4.53844652 66.2251091,5.63079884 C66.2251091,5.77379641 66.1304162,5.85186641 65.9816121,5.85186641 L65.9816121,5.85186641 L62.4238557,5.85186641 C62.4238557,7.78949322 63.5872293,8.56974208 64.3447743,8.56974208 C65.0887906,8.56974208 65.562258,8.33566938 66.0357224,7.84150393 C66.1845264,7.85450906 66.2656887,7.9195347 66.3062744,8.04957617 C65.7922264,8.72579381 64.9940978,9.20694433 64.020112,9.20694433 C62.1668333,9.20694433 61.3416485,7.98455053 61.3416485,6.48906866 C61.3416485,4.51243626 62.7349915,3.36807324 64.020112,3.36807324 Z M81.2492131,3.36809286 C83.034853,3.36809286 83.4542102,4.53846614 83.4542102,5.63081846 C83.4542102,5.77381602 83.3595173,5.85188602 83.2107132,5.85188602 L83.2107132,5.85188602 L79.6529568,5.85188602 C79.6529568,7.78951284 80.8163304,8.56976169 81.5738753,8.56976169 C82.3178917,8.56976169 82.7913591,8.335689 83.2648234,7.84152354 C83.4136275,7.85452867 83.4947898,7.91955431 83.5353755,8.04959579 C83.0213275,8.72581342 82.2231989,9.20696394 81.2492131,9.20696394 C79.3959344,9.20696394 78.5707496,7.98457015 78.5707496,6.48908827 C78.5707496,4.51245588 79.9640926,3.36809286 81.2492131,3.36809286 Z M27.5841325,3.36809286 C28.8827796,3.36809286 29.5997429,4.00529511 29.5997429,4.69451787 C29.5997429,5.07163717 29.2480255,5.25369916 28.9639459,5.25369916 C28.6798673,5.25369916 28.5175387,5.12365768 28.476953,4.79854909 C28.4228428,4.36940928 28.3146214,3.81022799 27.5164938,3.81022799 C26.6236743,3.81022799 25.9337661,4.65550248 25.9337661,6.08595872 C25.9337661,7.60745085 26.6913121,8.63478733 27.7329356,8.63478733 C28.3146214,8.63478733 28.9368918,8.29667361 29.356247,7.71148207 C29.4779949,7.7244872 29.5862113,7.77650771 29.6403256,7.89354406 C28.9639469,8.95988612 28.2469836,9.20696394 27.4353285,9.20696394 C25.7308538,9.20696394 24.7839211,8.04959579 24.7839211,6.37205192 C24.7839211,4.52546101 26.1231539,3.36809286 27.5841325,3.36809286 Z M13.9365394,3.36809286 C15.7221793,3.36809286 16.1415365,4.53846614 16.1415365,5.63081846 C16.1415365,5.77381602 16.0468436,5.85188602 15.8980395,5.85188602 L15.8980395,5.85188602 L12.3402831,5.85188602 C12.3402831,7.78951284 13.5036567,8.56976169 14.2612017,8.56976169 C15.005218,8.56976169 15.4786854,8.335689 15.9521497,7.84152354 C16.1009538,7.85452867 16.1821161,7.91955431 16.2227018,8.04959579 C15.7086538,8.72581342 14.9105252,9.20696394 13.9365394,9.20696394 C12.0832607,9.20696394 11.2580759,7.98457015 11.2580759,6.48908827 C11.2580759,4.51245588 12.6514189,3.36809286 13.9365394,3.36809286 Z M104.809664,3.32905785 C104.8367,3.32905785 104.863737,3.34210221 104.863737,3.36809286 L104.863737,3.36809286 L104.823131,4.53846614 L104.863737,4.53846614 C105.21546,4.03130536 105.810676,3.36809286 106.446468,3.36809286 C107.001098,3.36809286 107.204017,3.62817581 107.204017,3.96627972 C107.204017,4.30439344 106.974041,4.51245588 106.622329,4.51245588 C106.351778,4.51245588 106.202974,4.40842466 106.067698,4.27838319 C105.986527,4.20038184 105.891827,4.16134684 105.797147,4.16134684 C105.648343,4.16134684 105.350735,4.39541953 105.02607,4.83756447 C104.93138,4.95460082 104.863737,5.12365768 104.863737,5.29270473 L104.863737,5.29270473 L104.863737,8.14062188 C104.863737,8.51774118 105.012541,8.67381253 105.445425,8.69980317 L105.445425,8.69980317 L105.837723,8.72579381 C105.905406,8.72579381 105.95948,8.76479939 105.95948,8.82982503 L105.95948,8.82982503 L105.95948,9.07690285 L105.932443,9.10289349 C105.431917,9.08994721 104.850229,9.07690285 104.336184,9.07690285 C103.849196,9.07690285 103.429831,9.08984913 102.929314,9.10289349 L102.929314,9.10289349 L102.915745,9.07690285 L102.915745,8.82982503 C102.915745,8.76482881 102.942782,8.73883817 103.010425,8.72579381 L103.010425,8.72579381 L103.267457,8.69980317 C103.713859,8.66078778 103.849145,8.51774118 103.849145,8.14062188 L103.849186,8.14057284 L103.849186,4.90253127 C103.849186,4.25232389 103.740957,4.1222628 103.551578,4.09627216 L103.551578,4.09627216 L102.96989,4.04429088 L102.942853,3.73218741 C103.889782,3.58914081 104.430884,3.47210446 104.809664,3.32905785 Z M45.3414519,7.10542736e-15 C45.4631968,7.10542736e-15 45.5173111,0.0390251928 45.5173111,0.130041476 C45.5173111,0.130041476 45.4767254,0.650217186 45.4767254,1.49548187 L45.4767254,1.49548187 L45.4767254,8.14062188 C45.4767254,8.51774118 45.5984744,8.66076817 46.0448836,8.69980317 L46.0448836,8.69980317 L46.3695459,8.72579381 C46.423653,8.72579381 46.4777673,8.76479939 46.4777673,8.82982503 L46.4777673,8.82982503 L46.4777673,9.07690285 L46.4507102,9.10289349 C45.7743316,9.08994721 45.5037785,9.07690285 44.9491478,9.07690285 C44.4215723,9.07690285 44.1510192,9.08984913 43.4746406,9.10289349 L43.4746406,9.10289349 L43.461112,9.07690285 L43.461112,8.82982503 C43.461112,8.76482881 43.4881589,8.72579381 43.5558018,8.72579381 L43.5558018,8.72579381 L43.8804641,8.69980317 C44.3268743,8.66078778 44.4621508,8.51774118 44.4621508,8.14062188 L44.462156,8.14061207 L44.462156,1.75555502 C44.462156,0.91029033 44.3268794,0.741233469 44.0563284,0.741233469 L44.0563284,0.741233469 L43.6234457,0.715242828 C43.5828702,0.715242828 43.5422844,0.689252187 43.5422844,0.650217186 L43.5422844,0.650217186 L43.5152273,0.338113721 C44.069858,0.299098336 45.0032631,0.130041476 45.3414519,7.10542736e-15 Z M3.47659313,0.663251738 L3.50365027,0.689242379 L3.50365027,0.93633001 C3.50365027,1.00132623 3.4630717,1.04036123 3.39542883,1.04036123 L3.39542883,1.04036123 L3.04371146,1.06635187 C2.4890808,1.10535745 2.29969406,1.24840405 2.29969406,1.61252803 L2.29969406,1.61252803 L2.29969406,7.91955431 C2.29969406,8.32268387 2.54319101,8.56976169 2.93549104,8.56976169 L2.93549104,8.56976169 L4.49116259,8.56971265 C5.51925757,8.56971265 5.92508719,7.80246893 6.19563824,6.86616834 L6.19563824,6.86616834 L6.60146582,6.93119398 C6.45266275,7.60741162 6.30386273,8.37466515 6.24974844,9.10289349 C6.24974844,9.10289349 5.00521059,9.07690285 4.63996567,9.07690285 L4.63996567,9.07690285 L1.74506136,9.07690285 C1.21748581,9.07690285 0.662853113,9.08984913 0.0270571447,9.10289349 L0.0270571447,9.10289349 L-1.5187851e-13,9.07690285 L-1.5187851e-13,8.82982503 C-1.5187851e-13,8.76482881 0.0541061273,8.72579381 0.108220417,8.72579381 L0.108220417,8.72579381 L0.514047999,8.69980317 C1.0551511,8.66078778 1.2039552,8.59577195 1.2039552,8.14062188 L1.2039552,8.14062188 L1.2039552,1.61252803 C1.2039552,1.22239379 0.987513342,1.10538687 0.473465343,1.06635187 L0.473465343,1.06635187 L0.108220417,1.04036123 C0.0541142893,1.04036123 -1.5187851e-13,1.00135565 -1.5187851e-13,0.93633001 L-1.5187851e-13,0.93633001 L-1.5187851e-13,0.689242379 L0.0270571447,0.663251738 C0.662853113,0.67619802 1.21748581,0.689242379 1.74506136,0.689242379 C2.28616446,0.689242379 2.84079716,0.67619802 3.47659313,0.663251738 L3.47659313,0.663251738 Z M19.0849182,3.32905785 C19.1119753,3.32905785 19.1390325,3.34210221 19.1390325,3.36809286 L19.1390386,3.36804382 L19.0984529,4.52541197 L19.1390386,4.52541197 C20.004804,3.550096 20.6541295,3.36804382 21.3440357,3.36804382 C22.5615185,3.36804382 22.8320715,4.26532902 22.8320715,5.42269717 L22.8320715,5.42269717 L22.8320715,8.14057284 C22.8320715,8.51769214 22.9808746,8.66071913 23.4002297,8.69975413 L23.4002297,8.69975413 L23.6572543,8.72574477 C23.7248879,8.73875971 23.7790022,8.76475035 23.7790022,8.82977599 L23.7790022,8.82977599 L23.7790022,9.07685381 L23.7519451,9.10284445 C23.210842,9.08989817 22.8591236,9.07685381 22.3044929,9.07685381 C21.7769174,9.07685381 21.5063643,9.08980009 20.9652612,9.10284445 L20.9652612,9.10284445 L20.938204,9.07685381 L20.938204,8.82977599 C20.938204,8.76477977 20.9787826,8.73878913 21.0464255,8.72574477 L21.0464255,8.72574477 L21.2358112,8.69975413 C21.6686939,8.63473829 21.817498,8.51769214 21.817498,8.14057284 L21.817498,8.14057284 L21.817498,5.33167108 C21.817498,4.42138075 21.6551663,3.99224094 20.938204,3.99224094 C20.3429907,3.99224094 19.8289417,4.2133085 19.1390345,4.99356717 L19.1390345,4.99356717 L19.1390345,8.14057284 C19.1390345,8.51769214 19.2743111,8.63472849 19.7207213,8.69975413 L19.7207213,8.69975413 L19.910107,8.72574477 C19.9777427,8.73875971 20.0183285,8.76475035 20.0183285,8.82977599 L20.0183285,8.82977599 L20.0183285,9.07685381 L19.9912713,9.10284445 C19.4501682,9.08989817 19.1660876,9.07685381 18.6114569,9.07685381 C18.0838814,9.07685381 17.7456905,9.08980009 17.2045874,9.10284445 L17.2045874,9.10284445 L17.1775303,9.07685381 L17.1775303,8.82977599 C17.1775303,8.76477977 17.2181078,8.73878913 17.2857507,8.72574477 L17.2857507,8.72574477 L17.5427752,8.69975413 C17.9891854,8.66073874 18.124461,8.51769214 18.124461,8.14057284 L18.124461,8.14057284 L18.124461,4.90253127 C18.124461,4.25232389 18.0162406,4.1222628 17.8268548,4.09627216 L17.8268548,4.09627216 L17.245168,4.04429088 L17.2181109,3.73218741 C18.1650416,3.58914081 18.7061457,3.47210446 19.0849182,3.32905785 Z M76.5628768,3.32905785 C76.589934,3.32905785 76.6169911,3.34210221 76.6169911,3.36809286 C76.6169962,3.36804382 76.5764105,4.25232389 76.5764105,4.90253127 L76.5764105,8.14057284 C76.5764105,8.51769214 76.7252146,8.66071913 77.1445687,8.69975413 L77.1445687,8.69975413 L77.4015932,8.72574477 C77.4692269,8.73875971 77.5233412,8.76475035 77.5233412,8.82977599 L77.5233412,8.82977599 L77.5233412,9.07685381 L77.4962841,9.10284445 C76.955181,9.08989817 76.5628799,9.07685381 76.0488319,9.07685381 C75.561839,9.07685381 75.1830655,9.08980009 74.6419624,9.10284445 L74.6419624,9.10284445 L74.6149053,9.07685381 L74.6149053,8.82977599 C74.6149053,8.76477977 74.6554838,8.73878913 74.7231267,8.72574477 L74.7231267,8.72574477 L74.9801502,8.69975413 C75.440088,8.64773361 75.561837,8.51769214 75.561837,8.14057284 L75.561837,8.14057284 L75.561837,4.90253127 C75.561837,4.25232389 75.4536155,4.1222628 75.2642298,4.09627216 L75.2642298,4.09627216 L74.682543,4.04429088 L74.6554859,3.73218741 C75.6159441,3.58914081 76.1841044,3.47210446 76.5628768,3.32905785 Z M90.0615261,7.10542736e-15 C90.183271,7.10542736e-15 90.2373853,0.0390251928 90.2373853,0.130041476 C90.2373853,0.130041476 90.1967996,0.650217186 90.1967996,1.49548187 L90.1967996,1.49548187 L90.1967996,8.14062188 C90.1967996,8.51774118 90.3185486,8.66076817 90.7649578,8.69980317 L90.7649578,8.69980317 L91.0896201,8.72579381 C91.143765,8.72579381 91.1978385,8.76479939 91.1978385,8.82982503 L91.1978385,8.82982503 L91.1978385,9.07690285 L91.1708017,9.10289349 C90.4944272,9.08994721 90.2238741,9.07690285 89.6692435,9.07690285 C89.1416679,9.07690285 88.8711148,9.08984913 88.1947362,9.10289349 L88.1947362,9.10289349 L88.1812076,9.07690285 L88.1812076,8.82982503 C88.1812076,8.76482881 88.2082648,8.72579381 88.2758974,8.72579381 L88.2758974,8.72579381 L88.6005597,8.69980317 C89.0469699,8.66078778 89.1822465,8.51774118 89.1822465,8.14062188 L89.1822302,8.14061207 L89.1822302,1.75555502 C89.1822302,0.91029033 89.0469536,0.741233469 88.7764026,0.741233469 L88.7764026,0.741233469 L88.3435199,0.715242828 C88.3029444,0.715242828 88.2623587,0.689252187 88.2623587,0.650217186 L88.2623587,0.650217186 L88.2353015,0.338113721 C88.7899322,0.299098336 89.7233373,0.130041476 90.0615261,7.10542736e-15 Z M94.1011252,3.32905785 C94.1281619,3.32905785 94.1551987,3.34210221 94.1551987,3.36809286 C94.1552089,3.36804382 94.1146027,4.25232389 94.1146027,4.90253127 L94.1146027,4.90253127 L94.1146027,8.14057284 C94.1146027,8.51769214 94.2634068,8.66071913 94.682762,8.69975413 L94.682762,8.69975413 L94.9397844,8.72574477 C95.0074579,8.73875971 95.0615314,8.76475035 95.0615314,8.82977599 L95.0615314,8.82977599 L95.0615314,9.07685381 L95.0344947,9.10284445 C94.4933824,9.08989817 94.1010844,9.07685381 93.5870394,9.07685381 C93.1000414,9.07685381 92.721272,9.08980009 92.1801699,9.10284445 L92.1801699,9.10284445 L92.1531332,9.07685381 L92.1531332,8.82977599 C92.1531332,8.76477977 92.1937087,8.73878913 92.2613516,8.72574477 L92.2613516,8.72574477 L92.518374,8.69975413 C92.9783149,8.64773361 93.1000618,8.51769214 93.1000618,8.14057284 L93.1000618,8.14057284 L93.1000618,4.90253127 C93.1000618,4.25232389 92.9918435,4.1222628 92.8024537,4.09627216 L92.8024537,4.09627216 L92.2207761,4.04429088 L92.1937393,3.73218741 C93.1541965,3.58914081 93.7223558,3.47210446 94.1011252,3.32905785 Z M50.1385357,3.79722286 C49.0563295,3.79722286 48.6369734,4.98061108 48.6369734,6.11196897 C48.6369734,7.1132952 49.1510224,8.77783394 50.4902531,8.77783394 C51.098994,8.77783394 51.9106502,8.42671509 51.9106502,6.71016565 C51.9106502,4.79854909 51.2477971,3.79722286 50.1385357,3.79722286 Z M57.3653042,3.96627972 C56.9053664,3.96627972 56.2560419,4.34339902 55.9584347,5.03262178 L55.9584347,5.03262178 L55.9584347,8.20564752 C56.4319001,8.73883817 56.8647838,8.76482881 57.0812246,8.76482881 C58.5286757,8.76482881 58.8939227,7.43839399 58.8939227,6.37205192 C58.8939227,4.90258031 58.1904869,3.96627972 57.3653042,3.96627972 Z M99.0985553,3.94026946 C98.9497512,3.94026946 98.2463165,3.96627972 97.718743,4.48644562 L97.718743,4.48644562 L97.718743,8.15362701 C97.989294,8.4787356 98.2733736,8.76482881 98.6927288,8.76482881 C99.9778411,8.76482881 100.586586,7.64646623 100.586586,6.16398949 C100.586586,4.90258031 99.923737,3.94026946 99.0985553,3.94026946 Z M70.3705473,3.82323312 C70.0999952,3.82323312 69.531836,3.8622485 69.1124809,4.47344049 C68.9095676,4.74652857 68.7337084,5.26670429 68.7337084,6.20300487 C68.7337084,7.82851841 69.4777268,8.59577195 70.2082157,8.59577195 C70.559933,8.59577195 71.0875096,8.32268387 71.6962505,7.85452867 L71.6962505,7.85452867 L71.6962505,4.59047684 C71.3715892,4.0963212 71.0063433,3.82323312 70.3705473,3.82323312 Z M110.713835,3.81022799 C110.402698,3.81022799 109.401655,3.87525363 109.158161,5.34472525 L109.158161,5.34472525 L111.647235,5.34472525 C111.782551,5.34472525 111.836624,5.27969961 111.836624,5.16266326 C111.836624,4.07031094 111.200833,3.81022799 110.713835,3.81022799 Z M13.9365394,3.81022799 C13.6254047,3.81022799 12.6243628,3.87525363 12.3808658,5.34472525 L12.3808658,5.34472525 L14.8699425,5.34472525 C15.005215,5.34472525 15.0593293,5.27969961 15.0593293,5.16266326 C15.0593293,4.07031094 14.4235323,3.81022799 13.9365394,3.81022799 Z M81.2492131,3.81022799 C80.9380784,3.81022799 79.9370364,3.87525363 79.6935395,5.34472525 L79.6935395,5.34472525 L82.1826162,5.34472525 C82.3178887,5.34472525 82.372003,5.27969961 82.372003,5.16266326 C82.372003,4.07031094 81.736206,3.81022799 81.2492131,3.81022799 Z M64.020112,3.81020837 C63.7089773,3.81020837 62.7079354,3.87523401 62.4644384,5.34470563 L62.4644384,5.34470563 L64.9535151,5.34470563 C65.0887876,5.34470563 65.1429019,5.27967999 65.1429019,5.16264364 C65.1429019,4.07029132 64.5071049,3.81020837 64.020112,3.81020837 Z M8.93146347,8.8817842e-15 C9.47256657,8.8817842e-15 9.82428395,0.507170582 9.82428395,1.28741944 C9.82428395,2.19770977 9.03968286,2.8219167 8.22802872,2.9649633 C8.13333688,2.8739274 8.10627973,2.78290131 8.10627973,2.65285984 C8.80971448,2.48380297 9.29670839,1.8856063 9.29670839,1.61252803 C9.29670839,1.31342969 9.06673899,1.23537931 8.80971448,1.20938867 C8.56621854,1.17038309 8.21450117,1.04034161 8.21450117,0.637212058 C8.21450117,0.27308808 8.51210833,8.8817842e-15 8.93146347,8.8817842e-15 Z M64.7235467,0.325108593 C64.8047121,0.325108593 65.1564294,0.338113721 65.4675641,0.62420693 L65.4675641,0.62420693 L65.5081499,0.767253534 L63.9524773,2.18470464 C63.749563,2.37980118 63.6413385,2.43178246 63.5466487,2.43178246 C63.4519528,2.43178246 63.357263,2.35375169 63.357263,2.26273541 C63.357263,2.1196888 63.3978456,2.06766829 63.506066,1.89861143 L63.506066,1.89861143 L64.53416,0.351099234 C64.5747426,0.338152953 64.6559141,0.325108593 64.7235467,0.325108593 Z M75.9947217,1.04034161 C76.3464391,1.04034161 76.6440462,1.32643482 76.6440462,1.66453874 C76.6440462,2.00265246 76.3464391,2.28874566 75.9947217,2.28874566 C75.6430053,2.28874566 75.3453972,2.00265246 75.3453972,1.66453874 C75.3453972,1.32643482 75.6430053,1.04034161 75.9947217,1.04034161 Z M93.5329252,1.04034161 C93.8846476,1.04034161 94.1822558,1.32643482 94.1822558,1.66453874 C94.1822558,2.00265246 93.8846476,2.28874566 93.5329252,2.28874566 C93.1812129,2.28874566 92.8836047,2.00265246 92.8836047,1.66453874 C92.8836047,1.32643482 93.1812129,1.04034161 93.5329252,1.04034161 Z"/>
	</g>
</svg>
